<?xml version="1.0" encoding="utf-8"?>
<!-- Generator: Adobe Illustrator 18.0.0, SVG Export Plug-In . SVG Version: 6.00 Build 0)  -->
<!DOCTYPE svg PUBLIC "-//W3C//DTD SVG 1.1//EN" "http://www.w3.org/Graphics/SVG/1.1/DTD/svg11.dtd">
<svg version="1.1" id="Calque_1" xmlns="http://www.w3.org/2000/svg" xmlns:xlink="http://www.w3.org/1999/xlink" x="0px" y="0px"
	 viewBox="0 244 1024 536" enable-background="new 0 244 1024 536" xml:space="preserve">
<path d="M8,423.9c5.1-4.1,26.2-9.7,49.3-14.3c8.3-31.3,16.6-54.8,21.6-58.5c7.8-5.5,31.8,12,30.4,17l-9.2,34.1
	c8.7-1.4,16.1-2.3,21.6-2.8c10.1-0.9,18.9-2.8,21.6,3.2c2.8,6.4,6.9,1.4,12.4,6.9c2.3,2.3,9.7,12.4,9.7,15.2c0,3.2-0.9,6.9-6.9,6.9
	c-18.9,0.5-44.7,3.7-68.1,7.4c-15.2,59-29.5,124.4-29.5,166.3c0,12,5.1,19.3,14.7,19.3c27.2,0,64.5-32.7,66.3-57.1
	c0,0,16.6-4.1,16.6,23.5c0,31.3-43.7,67.2-73.2,67.2c-31.3,0-57.5-32.7-57.5-80.1c0-27.6,9.2-82.9,20.7-132.1l-20.7,4.6
	C15.8,453.3,1.5,429.4,8,423.9L8,423.9z"/>
<path d="M208.3,392.6c17.5,0,37.8,13.8,37.8,56.2c0,58.9-16.1,112.3-52.5,112.3c-19.8,0-26.7-19.3-26.7-19.3s-8.3,24.4-8.3,61.7
	c0,21.6,8.3,37.8,31.8,37.8c35.5,0,64-57.5,64-87.9c0,0,0-5.1,6.4-5.1c7.4,0,13.4,9.2,13.4,22.1c0,40.1-24.9,107.7-76,107.7
	c-35.5,0-68.6-32.7-68.6-90.2C129.5,510.9,167.7,392.6,208.3,392.6L208.3,392.6z M183.9,533.4c16.1,0,29.9-52,29.9-94.4
	c0-19.3-3.2-21.6-5.5-21.6c-1.8,0-4.1,1.8-6.9,8.3c-11,24.9-23.9,62.6-29,96.2C172.3,521.9,174.7,533.4,183.9,533.4z"/>
<path d="M328.9,409.6c23.5,0,46,22.1,46,47c0,43.3-17.5,63.5-34.1,63.5c-12.9,0-20.3-8.3-20.3-22.1v-2.8c0,0,15.7-17,15.7-47.4
	c0-6.9-2.8-11-8.3-11c-23.9,0-46.5,72.3-46.5,142.7c0,42.8,12.9,56.2,32.2,56.2c37.8,0,64.9-58.9,67.7-87.5c0,0,4.6-0.5,7.4-0.5
	c5.5,0,14.3,4.1,14.3,25.8c0,16.1-18,92.5-81,92.5c-47,0-78.7-41-78.7-101.3C243.2,507.2,270.4,409.6,328.9,409.6L328.9,409.6z"/>
<path d="M467,482.8c-8.7,12-46.5,109.1-50.6,169c0,0-1.8,4.1-11.5,4.1c-16.6,0-33.1-18.9-33.1-28.5c0-50.2,20.7-312.1,38.2-331.9
	c6.9-7.4,36.4,1.8,36.4,14.7c0,26.7-7.8,45.1-12.9,70c-5.5,28.1-21.2,147.8-21.2,168.5l4.1,0.9c10.6-29.9,48.3-143.2,70.9-143.2
	c12,0,35.9,9.7,35.9,19.8c0,23.5-23,105.9-23,165.3c0,18.4,5.5,33.1,20.3,33.1c14.3,0,27.2-26.2,34.1-50.2c0,0,13.4-1.4,13.4,14.7
	c0,30.8-29.9,62.2-60.8,62.2c-35.9,0-47.9-45.6-47.9-76.4c0-29.9,9.7-78.7,13.4-91.2L467,482.8L467,482.8z"/>
<path d="M550.8,740.2c-0.9,6.4-2.3,6.4-5.5,6.9c-2.8,0.5-22.1-4.1-30.4-9.7c-5.1-3.2,9.2-90.7,22.1-175.9
	c1.8-57.1,13.4-154.2,26.2-154.2c10.6,0,26.2,10.6,25.8,15.7l-0.9,10.1c13.8-19.8,29.5-29,41.9-29c48.3,0,56.2,44.7,54.8,92.5
	c-1.8,50.6-19.3,160.2-78.7,160.2c-23,0-36.4-14.7-43.3-35l-0.9,9.7C557.2,667.9,553.5,720.8,550.8,740.2L550.8,740.2z M597.7,624.6
	c42.8,0,57.1-122.9,58-150.1c0.5-13.4,3.2-46-15.2-46c-26.7,0-48.3,80.6-52.9,106.8c-0.5,1.8-8.7-1.8-11.5-4.1
	c0,0-3.2,14.7-3.7,29.9C571.5,596.1,578.9,624.6,597.7,624.6L597.7,624.6z"/>
<path d="M787,620.5c-7.4,16.1-26.2,33.6-48.8,33.6c-34.1,0-59.9-35-59.9-91.2c0-83.3,38.2-166.2,93.5-166.2
	c31.3,0,45.1,20.3,45.1,34.1c0,2.3-0.5,5.1-0.5,5.1c4.1,1.4,22.1,1.8,19.3,12.4c-14.3,51.6-25.8,99.4-25.8,135.8
	c0,21.2,3.7,35.4,19.3,35.4c23.9,0,30.4-29.9,33.6-57.5c0,0,13.4-1.4,13.4,12.4c0,24.4-18.9,76.4-53.9,76.4
	c-21.2,0-32.2-19.3-33.1-30.4L787,620.5L787,620.5z M733.6,622.8c27.2,0,52-110,52-126.6c0,0-14.7-2.8-21.2-10.1
	c9.7-13.4,15.7-29.5,15.7-46c0-4.1,0-15.2-8.7-15.2c-33.6,0-54.3,110-54.3,158.4C717,611.7,721.6,622.8,733.6,622.8L733.6,622.8z"/>
<path d="M853.7,458.9c-6-6-12.9-18.9-12.9-27.6c0-9.7-0.9-6.9,34.1-14.7c6.4-40.1,12.9-100.4,16.6-122.5c0,0,6.9-1.8,14.3-1.8
	c10.1,0,23,3.2,23,19.3c0,22.6-9.7,65.4-17,99.4c31.3-5.5,59.9-9.7,72.7-9.7c12.9,0,21.6,16.6,21.6,26.7c0,0,0,6-8.7,6.9
	c-20.7,2.3-54.3,7.4-93,14.7l-0.5,2.3c30.4,34.1,42.8,59.9,42.8,119.7c0,95.8-54.3,151.9-76.9,151.9c-22.6,0-28.5-21.2-28.5-51.1
	c0-12.4,0.9-26.7,2.3-41.4c6.9-74.6,19.8-125.7,23.5-159.3L853.7,458.9L853.7,458.9z M877.7,672.5c0,11,1.8,18.9,7.8,18.9
	c6.4,0,36.4-30.4,36.4-104.5c0-30.8-2.8-71.8-23.5-98.1c-2.8,27.2-11.5,87-17.5,145.9C879.5,646.7,877.7,661,877.7,672.5z"/>
<g>
	
		<linearGradient id="SVGID_1_" gradientUnits="userSpaceOnUse" x1="148.2856" y1="564.6363" x2="642.4006" y2="928.0323" gradientTransform="matrix(1 0 0 -1 0 1024)">
		<stop  offset="6.000000e-03" style="stop-color:#F7931E"/>
		<stop  offset="1" style="stop-color:#ED1E79"/>
	</linearGradient>
	<path fill="url(#SVGID_1_)" d="M21.1,410.8c5.1-4.1,26.2-9.7,49.3-14.3C78.7,365.2,87,341.7,92,338c7.8-5.5,31.8,12,30.4,17
		l-9.2,34.1c8.7-1.4,16.1-2.3,21.6-2.8c10.1-0.9,18.9-2.8,21.6,3.2c2.8,6.4,6.9,1.4,12.4,6.9c2.3,2.3,9.7,12.4,9.7,15.2
		c0,3.2-0.9,6.9-6.9,6.9c-18.9,0.5-44.7,3.7-68.1,7.4C88.3,484.9,74,550.3,74,592.2c0,12,5.1,19.3,14.7,19.3
		c27.2,0,64.5-32.7,66.3-57.1c0,0,16.6-4.1,16.6,23.5c0,31.3-43.7,67.2-73.2,67.2c-31.3,0-57.5-32.7-57.5-80.1
		c0-27.6,9.2-82.9,20.7-132.1l-20.7,4.6C28.9,440.3,14.6,416.3,21.1,410.8L21.1,410.8z"/>
	
		<linearGradient id="SVGID_2_" gradientUnits="userSpaceOnUse" x1="203.964" y1="488.9299" x2="698.079" y2="852.3259" gradientTransform="matrix(1 0 0 -1 0 1024)">
		<stop  offset="6.000000e-03" style="stop-color:#F7931E"/>
		<stop  offset="1" style="stop-color:#ED1E79"/>
	</linearGradient>
	<path fill="url(#SVGID_2_)" d="M221.3,379.5c17.5,0,37.8,13.8,37.8,56.2c0,58.9-16.1,112.3-52.5,112.3c-19.8,0-26.7-19.3-26.7-19.3
		s-8.3,24.4-8.3,61.7c0,21.6,8.3,37.8,31.8,37.8c35.5,0,64-57.5,64-87.9c0,0,0-5.1,6.4-5.1c7.4,0,13.4,9.2,13.4,22.1
		c0,40.1-24.9,107.7-76,107.7c-35.5,0-68.6-32.7-68.6-90.2C142.6,497.8,180.8,379.5,221.3,379.5z M196.9,520.4
		c16.1,0,29.9-52,29.9-94.4c0-19.3-3.2-21.6-5.5-21.6c-1.8,0-4.1,1.8-6.9,8.3c-11,24.9-23.9,62.6-29,96.2
		C185.4,508.9,187.7,520.4,196.9,520.4z"/>
	
		<linearGradient id="SVGID_3_" gradientUnits="userSpaceOnUse" x1="247.264" y1="430.0539" x2="741.3781" y2="793.4499" gradientTransform="matrix(1 0 0 -1 0 1024)">
		<stop  offset="6.000000e-03" style="stop-color:#F7931E"/>
		<stop  offset="1" style="stop-color:#ED1E79"/>
	</linearGradient>
	<path fill="url(#SVGID_3_)" d="M342,396.5c23.5,0,46,22.1,46,47c0,43.3-17.5,63.5-34.1,63.5c-12.9,0-20.3-8.3-20.3-22.1v-2.8
		c0,0,15.7-17,15.7-47.4c0-6.9-2.8-11-8.3-11c-23.9,0-46.5,72.3-46.5,142.7c0,42.8,12.9,56.2,32.2,56.2c37.8,0,64.9-58.9,67.7-87.5
		c0,0,4.6-0.5,7.4-0.5c5.5,0,14.3,4.1,14.3,25.8c0,16.1-18,92.5-81,92.5c-47,0-78.7-41-78.7-101.3
		C256.3,494.1,283.5,396.5,342,396.5L342,396.5z"/>
	
		<linearGradient id="SVGID_4_" gradientUnits="userSpaceOnUse" x1="265.23" y1="405.6255" x2="759.344" y2="769.0225" gradientTransform="matrix(1 0 0 -1 0 1024)">
		<stop  offset="6.000000e-03" style="stop-color:#F7931E"/>
		<stop  offset="1" style="stop-color:#ED1E79"/>
	</linearGradient>
	<path fill="url(#SVGID_4_)" d="M480.1,469.7c-8.7,12-46.5,109.1-50.6,169c0,0-1.8,4.1-11.5,4.1c-16.6,0-33.1-18.9-33.1-28.5
		c0-50.2,20.7-312.1,38.2-331.9c6.9-7.4,36.4,1.8,36.4,14.7c0,26.7-7.8,45.1-12.9,70c-5.5,28.1-21.2,147.8-21.2,168.5l4.1,0.9
		c10.6-29.9,48.3-143.2,70.9-143.2c12,0,35.9,9.7,35.9,19.8c0,23.5-23,105.9-23,165.3c0,18.4,5.5,33.1,20.3,33.1
		c14.3,0,27.2-26.2,34.1-50.2c0,0,13.4-1.4,13.4,14.7c0,30.8-29.9,62.2-60.8,62.2c-35.9,0-47.9-45.6-47.9-76.4
		c0-29.9,9.7-78.7,13.4-91.2L480.1,469.7L480.1,469.7z"/>
	
		<linearGradient id="SVGID_5_" gradientUnits="userSpaceOnUse" x1="345.5599" y1="296.4" x2="839.674" y2="659.7969" gradientTransform="matrix(1 0 0 -1 0 1024)">
		<stop  offset="6.000000e-03" style="stop-color:#F7931E"/>
		<stop  offset="1" style="stop-color:#ED1E79"/>
	</linearGradient>
	<path fill="url(#SVGID_5_)" d="M563.9,727.1c-0.9,6.4-2.3,6.4-5.5,6.9c-2.8,0.5-22.1-4.1-30.4-9.7c-5.1-3.2,9.2-90.7,22.1-175.9
		c1.8-57.1,13.4-154.2,26.2-154.2c10.6,0,26.2,10.6,25.8,15.7l-0.9,10.1c13.8-19.8,29.5-29,41.9-29c48.3,0,56.2,44.7,54.8,92.5
		c-1.8,50.6-19.3,160.2-78.7,160.2c-23,0-36.4-14.7-43.3-35l-0.9,9.7C570.3,654.8,566.6,707.7,563.9,727.1L563.9,727.1z
		 M610.8,611.5c42.8,0,57.1-122.9,58-150.1c0.5-13.4,3.2-46-15.2-46c-26.7,0-48.3,80.6-52.9,106.8c-0.5,1.8-8.7-1.8-11.5-4.1
		c0,0-3.2,14.7-3.7,29.9C584.6,583,591.9,611.5,610.8,611.5L610.8,611.5z"/>
	
		<linearGradient id="SVGID_6_" gradientUnits="userSpaceOnUse" x1="403.8291" y1="217.1703" x2="897.944" y2="580.5663" gradientTransform="matrix(1 0 0 -1 0 1024)">
		<stop  offset="6.000000e-03" style="stop-color:#F7931E"/>
		<stop  offset="1" style="stop-color:#ED1E79"/>
	</linearGradient>
	<path fill="url(#SVGID_6_)" d="M800,607.4c-7.4,16.1-26.2,33.6-48.8,33.6c-34.1,0-59.9-35-59.9-91.2c0-83.3,38.2-166.2,93.5-166.2
		c31.3,0,45.1,20.3,45.1,34.1c0,2.3-0.5,5.1-0.5,5.1c4.1,1.4,22.1,1.8,19.3,12.4c-14.3,51.6-25.8,99.4-25.8,135.8
		c0,21.2,3.7,35.4,19.3,35.4c23.9,0,30.4-29.9,33.6-57.5c0,0,13.4-1.4,13.4,12.4c0,24.4-18.9,76.4-53.9,76.4
		c-21.2,0-32.2-19.3-33.1-30.4L800,607.4L800,607.4z M746.6,609.7c27.2,0,52-110,52-126.6c0,0-14.7-2.8-21.2-10.1
		c9.7-13.4,15.7-29.5,15.7-46c0-4.1,0-15.2-8.7-15.2c-33.6,0-54.3,110-54.3,158.4C730.1,598.6,734.7,609.7,746.6,609.7L746.6,609.7z
		"/>
	
		<linearGradient id="SVGID_7_" gradientUnits="userSpaceOnUse" x1="428.6667" y1="183.3995" x2="922.7807" y2="546.7954" gradientTransform="matrix(1 0 0 -1 0 1024)">
		<stop  offset="6.000000e-03" style="stop-color:#F7931E"/>
		<stop  offset="1" style="stop-color:#ED1E79"/>
	</linearGradient>
	<path fill="url(#SVGID_7_)" d="M866.8,445.8c-6-6-12.9-18.9-12.9-27.6c0-9.7-0.9-6.9,34.1-14.7c6.4-40.1,12.9-100.4,16.6-122.5
		c0,0,6.9-1.8,14.3-1.8c10.1,0,23,3.2,23,19.3c0,22.6-9.7,65.4-17,99.4c31.3-5.5,59.9-9.7,72.7-9.7c12.9,0,21.6,16.6,21.6,26.7
		c0,0,0,6-8.7,6.9c-20.7,2.3-54.3,7.4-93,14.7l-0.5,2.3c30.4,34.1,42.8,59.9,42.8,119.7c0,95.8-54.3,151.9-76.9,151.9
		c-22.6,0-28.5-21.2-28.5-51.1c0-12.4,0.9-26.7,2.3-41.4c6.9-74.6,19.8-125.7,23.5-159.3L866.8,445.8L866.8,445.8z M890.7,659.4
		c0,11,1.8,18.9,7.8,18.9c6.4,0,36.4-30.4,36.4-104.5c0-30.8-2.8-71.8-23.5-98.1c-2.8,27.2-11.5,87-17.5,145.9
		C892.6,633.6,890.7,647.9,890.7,659.4z"/>
</g>
</svg>
